<svg width="92" height="32" viewBox="0 0 92 32" fill="none" xmlns="http://www.w3.org/2000/svg">

<g transform="translate(0.000000,318.000000) scale(0.100000,-0.100000)"
fill="#000000" stroke="none">
<path d="M2256 3081 c-14 -58 -55 -140 -73 -149 -10 -5 -51 -15 -91 -21 -109
-19 -250 -80 -347 -149 -132 -95 -228 -211 -297 -359 -56 -120 -77 -207 -84
-348 -5 -101 -2 -132 15 -197 28 -107 64 -179 122 -243 117 -128 273 -148 465
-60 103 47 344 213 344 238 0 21 -33 15 -77 -16 -73 -51 -179 -103 -280 -137
-168 -56 -289 -38 -370 55 -19 22 -44 50 -55 63 -32 35 -58 91 -78 167 -13 49
-19 61 -19 40 -1 -16 -5 -37 -11 -45 -33 -52 -23 161 14 308 15 57 41 132 58
165 107 215 313 388 546 461 46 14 87 26 93 26 26 0 1 -35 -76 -105 -98 -89
-138 -141 -167 -223 -26 -72 -28 -207 -4 -271 21 -58 21 -61 -15 -61 -125 0
-245 -86 -282 -201 -40 -124 -3 -226 108 -295 l30 -19 -31 36 c-107 124 -97
266 23 341 34 20 50 23 143 23 100 0 108 -2 170 -34 97 -50 170 -110 326 -265
78 -78 166 -156 196 -174 66 -39 146 -58 210 -48 98 15 198 113 237 233 26 80
26 128 1 197 -48 126 -177 156 -333 76 -68 -35 -257 -167 -257 -180 0 -23 24
-17 72 20 83 63 211 121 277 127 45 3 63 0 89 -17 86 -54 84 -212 -5 -329 -26
-34 -112 -81 -149 -81 -79 0 -196 83 -297 213 -37 47 -110 125 -162 173 -169
155 -243 262 -265 382 -22 125 12 216 124 326 40 39 89 92 108 117 42 56 71
153 66 224 -3 49 -3 49 -12 16z"/>
<path d="M2232 2633 c-13 -3 -43 -23 -67 -46 -74 -72 -83 -155 -25 -236 55
-75 136 -98 215 -62 108 49 144 175 79 274 -40 61 -115 87 -202 70z"/>
<path d="M1472 1960 c0 -14 2 -19 5 -12 2 6 2 18 0 25 -3 6 -5 1 -5 -13z"/>
<path d="M1481 1894 c0 -11 3 -14 6 -6 3 7 2 16 -1 19 -3 4 -6 -2 -5 -13z"/>
<path d="M1075 1336 c-35 -35 -41 -69 -18 -108 37 -64 131 -59 159 9 18 41 9
77 -23 103 -36 28 -88 26 -118 -4z"/>
<path d="M90 1224 c0 -1 17 -37 39 -80 21 -44 72 -151 114 -239 41 -88 107
-227 146 -308 39 -81 92 -194 117 -250 25 -56 48 -104 50 -106 2 -2 26 43 53
100 27 57 70 149 96 204 26 55 67 141 91 192 l43 92 3 195 c2 107 0 198 -4
201 -5 6 -88 -155 -88 -170 0 -13 -182 -375 -188 -375 -7 0 -91 168 -235 473
l-32 69 -103 1 c-56 1 -102 2 -102 1z"/>
<path d="M1747 996 c-111 -31 -165 -127 -154 -277 9 -135 65 -200 190 -221 98
-17 184 17 234 91 36 53 31 61 -37 61 -45 0 -62 -4 -67 -15 -8 -21 -56 -45
-91 -45 -16 0 -42 10 -57 22 -25 20 -55 73 -55 98 0 6 60 10 170 10 l170 0 0
35 c0 101 -47 197 -111 227 -49 23 -136 30 -192 14z m132 -102 c19 -14 51 -69
51 -89 0 -3 -47 -5 -105 -5 -104 0 -105 0 -105 24 0 13 13 38 29 55 23 24 37
31 68 31 21 0 49 -7 62 -16z"/>
<path d="M2270 1001 c-116 -24 -169 -103 -170 -252 0 -146 55 -224 177 -249
61 -13 107 -8 169 20 43 18 90 70 96 105 3 18 -3 20 -50 23 -47 3 -57 0 -88
-27 -57 -51 -135 -35 -168 33 -32 67 -35 66 154 66 l170 0 0 33 c0 43 -24 128
-46 165 -43 73 -136 104 -244 83z m131 -120 c17 -17 29 -40 29 -55 l0 -26
-105 0 c-58 0 -105 2 -105 5 0 3 6 21 14 39 30 71 114 90 167 37z"/>
<path d="M2764 999 c-57 -13 -118 -69 -141 -127 -23 -60 -23 -183 1 -245 49
-130 229 -176 358 -91 37 23 83 95 71 108 -4 3 -29 6 -56 6 -41 0 -55 -5 -84
-30 -38 -34 -77 -39 -123 -15 -32 16 -60 61 -60 95 0 19 5 20 171 20 l172 0
-7 53 c-12 107 -52 178 -118 213 -36 19 -132 26 -184 13z m142 -123 c19 -19
34 -43 34 -55 0 -20 -5 -21 -105 -21 l-105 0 6 28 c9 42 58 82 100 82 28 0 44
-8 70 -34z"/>
</g>
</svg>
